<?xml version="1.0" encoding="iso-8859-1"?>
<!-- Generator: Adobe Illustrator 18.0.0, SVG Export Plug-In . SVG Version: 6.00 Build 0)  -->
<!DOCTYPE svg PUBLIC "-//W3C//DTD SVG 1.1//EN" "http://www.w3.org/Graphics/SVG/1.1/DTD/svg11.dtd">
<svg version="1.1" id="Capa_1" xmlns="http://www.w3.org/2000/svg" xmlns:xlink="http://www.w3.org/1999/xlink" x="0px" y="0px"
	 viewBox="0 0 490.052 490.052" style="enable-background:new 0 0 490.052 490.052;" xml:space="preserve">
<g id="XMLID_57_">
	<path id="XMLID_58_" d="M487.652,134.923c-4.818-8.098-15.295-10.749-23.41-5.961l-57.391,34.111l-7.147-20.398
		c5.333-16.806-2.604-35.251-19.119-42.505c-7.135-3.149-20.197-9.487-28.36-9.728l-76.96,1.719
		c-8.418,0.192-15.44,6.476-16.564,14.822l-8.58,64.211l27.717-16.469c3.004-1.798,6.216-2.885,9.461-3.623l3.358-25.096
		l24.311-0.539l-11.439,26.052c7.663,2.226,14.541,7.158,18.927,14.549c8.803,14.854,4.368,33.764-9.69,43.381
		c-3.663,2.546-33.258,19.995-37.21,22.349l-12.677,61.834L205.711,276.6c-5.995-1.775-12.052-0.617-16.999,2.419l34.076,30.768
		c5.738,5.183,9.32,12.01,10.926,19.313l39.202,11.68c11.923,3.527,24.263-3.896,26.77-16.026l11.471-55.903l42.626,36.809
		L333.04,416.078c-2.168,11.496,5.398,22.55,16.87,24.71c11.52,2.153,22.559-5.421,24.712-16.885l22.926-122.076
		c1.366-7.248-1.14-14.669-6.619-19.618l-37.29-33.685l26.091-59.432l1.752,4.98c3.632,10.379,15.746,14.476,24.857,9.054
		l75.353-44.779C489.806,153.52,492.472,143.037,487.652,134.923z"/>
	<path id="XMLID_59_" d="M175.118,287.574l6.555-14.918l11.393-25.947l8.162-18.582l1.752,5.005
		c3.598,10.225,15.617,14.516,24.855,9.046l75.354-44.779c8.128-4.829,10.797-15.312,5.961-23.425
		c-4.821-8.098-15.279-10.742-23.409-5.961l-57.407,34.109l-7.133-20.398c5.316-16.805-2.604-35.25-19.12-42.504
		c-1.224-0.539-13.563-5.962-13.674-6.01c-3.392-1.494-11.136-3.799-16.743-3.671l-74.887,1.67
		c-8.435,0.195-15.457,6.476-16.564,14.823l-10.233,76.59c-1.238,9.358,5.317,17.955,14.683,19.201
		c9.369,1.276,17.963-5.368,19.201-14.67l8.291-62.098l24.309-0.54l-35.268,80.327c-3.213,7.327-4.145,15.016-3.406,22.444
		l-13.432,65.393l-57.148-17.03c-11.199-3.311-22.977,3.037-26.32,14.243c-3.341,11.19,3.037,22.976,14.236,26.317l79.274,23.619
		c11.761,3.51,24.26-3.792,26.769-16.027c9.719-47.301,7.309-35.531,11.473-55.904l42.624,36.817l-20.728,110.419
		c-2.15,11.48,5.415,22.533,16.887,24.703c11.535,2.152,22.543-5.456,24.696-16.903l22.911-122.068
		c1.364-7.246-1.143-14.669-6.604-19.61L175.118,287.574z"/>
	<path id="XMLID_60_" d="M199.62,126.704c20.423,8.99,44.459-0.225,53.521-20.846c9.028-20.541-0.324-44.498-20.855-53.519
		c-20.551-9.029-44.49,0.313-53.52,20.855C169.528,94.209,179.861,118.029,199.62,126.704z"/>
	<path id="XMLID_61_" d="M378.124,87.655c20.533,9.029,44.506-0.298,53.535-20.847c9.029-20.543-0.322-44.497-20.855-53.519
		c-20.565-9.023-44.521,0.313-53.533,20.854C348.239,54.685,357.589,78.632,378.124,87.655z"/>
</g>
<g>
</g>
<g>
</g>
<g>
</g>
<g>
</g>
<g>
</g>
<g>
</g>
<g>
</g>
<g>
</g>
<g>
</g>
<g>
</g>
<g>
</g>
<g>
</g>
<g>
</g>
<g>
</g>
<g>
</g>
</svg>
