<?xml version="1.0" encoding="iso-8859-1"?>
<!-- Generator: Adobe Illustrator 19.0.0, SVG Export Plug-In . SVG Version: 6.00 Build 0)  -->
<svg version="1.1" id="Capa_1" xmlns="http://www.w3.org/2000/svg" xmlns:xlink="http://www.w3.org/1999/xlink" x="0px" y="0px"
	 viewBox="0 0 429.986 429.986" style="enable-background:new 0 0 429.986 429.986;" xml:space="preserve">
<path id="XMLID_251_" d="M420.986,0H9C4.029,0,0,4.029,0,9v411.986c0,4.971,4.029,9,9,9h411.986c4.971,0,9-4.029,9-9V9
	C429.986,4.029,425.957,0,420.986,0z M223.993,79.535h103.899c1.357,4.769,3.792,9.2,7.168,12.95
	c4.159,4.62,9.518,7.923,15.391,9.601v103.907h-18.383c-3.104-10.871-11.688-19.454-22.56-22.559v-53.958c0-4.971-4.029-9-9-9
	h-53.958c-3.104-10.871-11.688-19.454-22.558-22.559V79.535z M59.522,80.441c-2.451-2.722-3.801-6.239-3.801-9.906
	c0-8.168,6.646-14.813,14.813-14.813s14.813,6.646,14.813,14.813s-6.646,14.813-14.813,14.813
	C66.345,85.349,62.331,83.56,59.522,80.441z M85.349,359.451c0,8.168-6.646,14.813-14.813,14.813c-4.19,0-8.204-1.789-11.013-4.907
	c-2.451-2.722-3.801-6.239-3.801-9.906c0-8.168,6.646-14.813,14.813-14.813S85.349,351.283,85.349,359.451z M79.535,102.094
	c10.871-3.104,19.454-11.688,22.559-22.559h103.899v18.383c-10.871,3.104-19.454,11.688-22.559,22.559h-53.958c-4.971,0-9,4.029-9,9
	v53.958c-10.871,3.104-19.456,11.688-22.561,22.559H79.535V102.094z M129.477,200.18c8.168,0,14.813,6.646,14.813,14.813
	s-6.646,14.813-14.813,14.813c-4.191,0-8.205-1.788-11.013-4.907c-2.452-2.723-3.803-6.241-3.803-9.906
	C114.661,206.825,121.308,200.18,129.477,200.18z M138.477,246.552c13.731-3.922,23.813-16.585,23.813-31.559
	s-10.082-27.637-23.813-31.559v-44.958h44.958c1.358,4.768,3.792,9.199,7.169,12.95c6.216,6.904,15.105,10.863,24.39,10.863
	c14.974,0,27.636-10.082,31.558-23.813h44.958v44.958c-13.731,3.922-23.813,16.585-23.813,31.559c0,8.12,2.991,15.915,8.424,21.952
	c4.161,4.619,9.519,7.92,15.389,9.599v44.966h-44.958c-3.922-13.731-16.584-23.813-31.558-23.813s-27.637,10.082-31.559,23.813
	h-44.958V246.552z M300.509,200.18c8.169,0,14.814,6.646,14.814,14.813s-6.646,14.813-14.814,14.813
	c-4.19,0-8.204-1.789-11.012-4.905c-2.451-2.724-3.801-6.242-3.801-9.908C285.696,206.825,292.341,200.18,300.509,200.18z
	 M246.551,309.51h53.958c4.971,0,9-4.029,9-9v-53.958c10.871-3.104,19.455-11.688,22.56-22.559h18.383v103.899
	c-10.871,3.104-19.454,11.688-22.559,22.559H223.993v-18.383C234.863,328.964,243.446,320.381,246.551,309.51z M359.451,344.638
	c8.168,0,14.813,6.646,14.813,14.813s-6.645,14.813-14.813,14.813c-4.192,0-8.206-1.788-11.013-4.907
	c-2.451-2.722-3.801-6.239-3.801-9.906C344.638,351.283,351.283,344.638,359.451,344.638z M348.438,80.441
	c-2.451-2.722-3.801-6.239-3.801-9.906c0-8.168,6.646-14.813,14.813-14.813s14.813,6.646,14.813,14.813s-6.645,14.813-14.813,14.813
	C355.259,85.349,351.245,83.561,348.438,80.441z M229.806,129.477c0,8.168-6.645,14.813-14.813,14.813
	c-4.191,0-8.205-1.788-11.013-4.906c-2.451-2.723-3.801-6.241-3.801-9.907c0-8.168,6.646-14.813,14.813-14.813
	S229.806,121.309,229.806,129.477z M18,18h187.993v43.535H102.094c-3.922-13.731-16.585-23.813-31.559-23.813
	c-18.094,0-32.813,14.72-32.813,32.813c0,8.123,2.992,15.918,8.425,21.952c4.161,4.619,9.519,7.92,15.389,9.599v103.907H18V18z
	 M205.993,411.986H18V223.993h43.535v103.899c-13.731,3.922-23.813,16.585-23.813,31.559c0,8.123,2.992,15.918,8.425,21.952
	c6.218,6.902,15.106,10.861,24.389,10.861c14.974,0,27.637-10.082,31.559-23.813h103.899V411.986z M205.993,350.451H102.094
	c-3.104-10.871-11.688-19.454-22.559-22.559V223.993h18.381c1.358,4.768,3.793,9.2,7.171,12.95c4.159,4.62,9.518,7.922,15.39,9.601
	v53.966c0,4.971,4.029,9,9,9h53.958c1.358,4.768,3.792,9.199,7.169,12.95c4.159,4.62,9.518,7.922,15.39,9.601V350.451z
	 M203.98,310.417c-2.451-2.723-3.801-6.241-3.801-9.907c0-8.168,6.646-14.813,14.813-14.813s14.813,6.646,14.813,14.813
	s-6.645,14.813-14.813,14.813C210.802,315.323,206.788,313.535,203.98,310.417z M411.986,411.986H223.993v-43.535h103.899
	c1.357,4.769,3.792,9.2,7.168,12.95c6.215,6.903,15.104,10.863,24.391,10.863c18.093,0,32.813-14.72,32.813-32.813
	c0-14.974-10.081-27.637-23.813-31.559V223.993h43.535V411.986z M411.986,205.993h-43.535V102.094
	c13.731-3.922,23.813-16.585,23.813-31.559c0-18.094-14.72-32.813-32.813-32.813c-14.974,0-27.637,10.082-31.559,23.813H223.993V18
	h187.993V205.993z"/>
<g>
</g>
<g>
</g>
<g>
</g>
<g>
</g>
<g>
</g>
<g>
</g>
<g>
</g>
<g>
</g>
<g>
</g>
<g>
</g>
<g>
</g>
<g>
</g>
<g>
</g>
<g>
</g>
<g>
</g>
</svg>
