<?xml version="1.0" encoding="iso-8859-1"?>
<!-- Generator: Adobe Illustrator 16.0.0, SVG Export Plug-In . SVG Version: 6.00 Build 0)  -->
<!DOCTYPE svg PUBLIC "-//W3C//DTD SVG 1.1//EN" "http://www.w3.org/Graphics/SVG/1.1/DTD/svg11.dtd">
<svg version="1.1" id="Capa_1" xmlns="http://www.w3.org/2000/svg" xmlns:xlink="http://www.w3.org/1999/xlink" x="0px" y="0px"
	 width="612px" height="612px" viewBox="0 0 612 612" style="enable-background:new 0 0 612 612;" xml:space="preserve">
<g>
	<g>
		<path d="M472.909,97.392V41.699c0-15.355-12.49-27.79-27.818-27.79c-15.355,0-27.818,12.435-27.818,27.79v55.692
			c0,15.355,12.49,27.79,27.818,27.79C460.446,125.182,472.909,112.747,472.909,97.392z"/>
		<rect x="55.636" y="180.818" width="500.727" height="27.818"/>
		<path d="M173.864,125.182c11.517,0,20.863-9.291,20.863-20.919V34.828c0-11.544-9.319-20.919-20.863-20.919h-13.909
			c-11.517,0-20.864,9.291-20.864,20.919v69.407c0,11.572,9.319,20.947,20.864,20.947H173.864z"/>
		<rect x="222.545" y="69.545" width="166.909" height="27.818"/>
		<path d="M250.364,514.637V292.091H227.97c-4.006,15.105-10.042,24.702-18.138,28.736c-8.123,4.062-22.421,6.954-42.923,8.679
			v18.833h56.332v166.298H250.364z"/>
		<path d="M0,570.272c0,27.818,30.6,27.818,30.6,27.818h553.582c0,0,27.818,0,27.818-27.818V69.545H500.728v27.818h83.454v472.909
			H27.818V97.364h83.455V69.545H0V570.272z"/>
		<path d="M429.43,322.469C424.366,312.398,427.037,317.739,429.43,322.469L429.43,322.469z"/>
		<path d="M374.989,292.091c-28.986,0-49.044,16.44-60.115,49.321c-5.925,17.637-8.874,38.779-8.874,63.398
			c0,31.768,4.924,57.082,14.771,75.943c11.822,22.588,29.849,33.883,54.078,33.883c26.845,0,46.179-13.826,58.001-41.449
			c8.151-19.278,12.24-43.619,12.24-73.078c0-31.073-4.507-55.525-13.52-73.385C419.943,303.635,401.083,292.091,374.989,292.091z
			 M405.7,468.736c-7.705,12.045-18.054,18.082-31.072,18.082c-16.163,0-27.596-9.876-34.272-29.599
			c-4.367-12.908-6.537-30.016-6.537-51.297c0-28.291,3.422-49.684,10.237-64.204c6.843-14.549,17.637-21.81,32.38-21.81
			c16.079,0,26.9,7.649,32.464,22.95c5.563,15.3,8.346,34.828,8.346,58.529C417.272,434.242,413.406,456.691,405.7,468.736z"/>
	</g>
</g>
<g>
</g>
<g>
</g>
<g>
</g>
<g>
</g>
<g>
</g>
<g>
</g>
<g>
</g>
<g>
</g>
<g>
</g>
<g>
</g>
<g>
</g>
<g>
</g>
<g>
</g>
<g>
</g>
<g>
</g>
</svg>
