<?xml version="1.0" encoding="iso-8859-1"?>
<!-- Generator: Adobe Illustrator 16.0.0, SVG Export Plug-In . SVG Version: 6.00 Build 0)  -->
<!DOCTYPE svg PUBLIC "-//W3C//DTD SVG 1.1//EN" "http://www.w3.org/Graphics/SVG/1.1/DTD/svg11.dtd">
<svg version="1.1" id="Capa_1" xmlns="http://www.w3.org/2000/svg" xmlns:xlink="http://www.w3.org/1999/xlink" x="0px" y="0px"
	 width="67.725px" height="67.725px" viewBox="0 0 67.725 67.725" style="enable-background:new 0 0 67.725 67.725;"
	 xml:space="preserve">
<g>
	<g>
		<path d="M52.053,34.82c-1.337-1.334-3.509-1.334-4.846,0c-1.061,1.063-2.572,1.385-3.925,1.002
			c0.075,0.415,0.132,0.842,0.161,1.261c1.154,0.331,2.441,0.09,3.354-0.818c1.561-1.563,4.105-1.563,5.666,0
			c1.337,1.332,3.509,1.332,4.845,0c0.698-0.698,1.593-1.067,2.505-1.141c0.078-0.428,0.15-0.858,0.235-1.284
			c-0.847,0.022-1.686,0.341-2.329,0.983C56.158,36.383,53.612,36.383,52.053,34.82z"/>
		<path d="M57.719,23.686c-1.561,1.562-4.106,1.562-5.666,0c-1.337-1.333-3.509-1.333-4.846,0c-1.56,1.562-4.105,1.562-5.666,0
			c-0.702-0.7-1.633-1.012-2.555-0.974c0.073,0.418,0.137,0.836,0.23,1.257c0.992,0.023,1.982,0.406,2.735,1.164
			c1.337,1.333,3.508,1.333,4.845,0c1.561-1.562,4.105-1.562,5.666,0c1.337,1.333,3.509,1.333,4.845,0
			c1.182-1.183,2.925-1.467,4.38-0.86c0.037-0.366,0.078-0.733,0.105-1.093C60.488,22.446,58.827,22.578,57.719,23.686z"/>
		<path d="M46.797,47.396c1.561-1.562,4.105-1.562,5.666,0c1.337,1.334,3.509,1.334,4.845,0c0.534-0.534,1.191-0.876,1.878-1.041
			c-0.003-0.401-0.021-0.805-0.048-1.208c-0.516,0.159-1.013,0.396-1.419,0.807c-1.561,1.561-4.106,1.561-5.666,0
			c-1.337-1.336-3.509-1.336-4.846,0c-1.56,1.561-4.105,1.561-5.666,0c-0.002,0-0.002,0-0.004-0.004
			c-0.087,0.319-0.142,0.629-0.203,0.939c0.219,0.146,0.427,0.312,0.618,0.504C43.289,48.732,45.46,48.732,46.797,47.396z"/>
		<path d="M57.719,27.397c-1.561,1.562-4.106,1.562-5.666,0c-1.337-1.333-3.509-1.333-4.846,0c-1.56,1.562-4.105,1.562-5.666,0
			c-0.461-0.459-1.026-0.7-1.619-0.845c0.15,0.455,0.342,0.901,0.52,1.355c0.553,0.191,1.072,0.493,1.511,0.934
			c1.337,1.333,3.508,1.333,4.845,0c1.561-1.562,4.105-1.562,5.666,0c1.337,1.333,3.509,1.333,4.845,0
			c1.045-1.049,2.537-1.375,3.878-1.016c0.068-0.393,0.14-0.783,0.203-1.184C60.159,26.162,58.713,26.409,57.719,27.397z"/>
		<path d="M57.719,31.109c-1.561,1.562-4.106,1.562-5.666,0c-1.337-1.334-3.509-1.334-4.846,0c-1.445,1.447-3.729,1.536-5.301,0.299
			c0.219,0.52,0.413,1.019,0.589,1.501c1.327,0.895,3.125,0.815,4.302-0.359c1.561-1.562,4.105-1.562,5.666,0
			c1.337,1.334,3.509,1.334,4.845,0c0.874-0.876,2.058-1.242,3.205-1.135c0.075-0.393,0.153-0.794,0.229-1.192
			C59.676,30.035,58.54,30.287,57.719,31.109z"/>
		<path d="M46.797,52.967c1.561-1.565,4.105-1.565,5.666,0c1.337,1.332,3.509,1.332,4.845,0c0.283-0.288,0.607-0.5,0.94-0.68
			c0.164-0.449,0.301-0.92,0.422-1.396c-0.34,0.164-0.671,0.352-0.951,0.63c-1.561,1.564-4.106,1.564-5.666,0
			c-1.337-1.332-3.509-1.332-4.846,0c-1.56,1.564-4.105,1.564-5.666,0c-0.059-0.06-0.142-0.082-0.205-0.137
			c0.109,0.499,0.26,0.976,0.438,1.435c0.059,0.053,0.123,0.091,0.178,0.144C43.289,54.299,45.46,54.299,46.797,52.967z"/>
		<path d="M43.674,2.523c-0.28,0.292-0.552,0.602-0.814,0.938c1.282,0.641,2.868,0.468,3.938-0.6c1.561-1.562,4.105-1.562,5.666,0
			c0.981,0.979,2.411,1.226,3.632,0.766c-0.347-0.376-0.705-0.729-1.072-1.051c-1.072,0.038-2.153-0.343-2.968-1.159
			c-1.337-1.333-3.508-1.333-4.845,0C46.249,2.378,44.917,2.743,43.674,2.523z"/>
		<path d="M46.797,45.542c1.561-1.562,4.105-1.562,5.666,0c1.337,1.334,3.509,1.334,4.845,0c0.519-0.519,1.15-0.847,1.812-1.024
			c-0.022-0.411-0.034-0.814-0.039-1.214c-0.497,0.162-0.969,0.401-1.363,0.794c-1.561,1.564-4.106,1.564-5.667,0
			c-1.336-1.332-3.508-1.332-4.845,0c-1.412,1.414-3.624,1.535-5.189,0.391c-0.005,0.006-0.005,0.011-0.009,0.02
			c-0.109,0.293-0.188,0.57-0.278,0.854c0.073,0.064,0.15,0.114,0.221,0.181C43.289,46.876,45.46,46.876,46.797,45.542z"/>
		<path d="M59.105,41.445c-0.504,0.157-0.987,0.398-1.387,0.798c-1.561,1.562-4.106,1.562-5.666,0c-1.337-1.334-3.509-1.334-4.846,0
			c-1.259,1.262-3.156,1.485-4.66,0.714c-0.098,0.297-0.2,0.603-0.316,0.915c1.346,1.097,3.312,1.067,4.566-0.185
			c1.561-1.562,4.105-1.562,5.666,0c1.337,1.334,3.509,1.334,4.845,0c0.505-0.505,1.113-0.826,1.755-1.009
			C59.064,42.259,59.09,41.854,59.105,41.445z"/>
		<path d="M57.719,38.532c-1.561,1.562-4.106,1.562-5.666,0c-1.337-1.332-3.509-1.332-4.846,0c-1.04,1.042-2.518,1.373-3.85,1.021
			c-0.048,0.384-0.114,0.78-0.201,1.182c1.223,0.466,2.657,0.219,3.643-0.762c1.561-1.562,4.106-1.562,5.667,0
			c1.336,1.332,3.508,1.332,4.845,0c0.559-0.563,1.252-0.917,1.978-1.072c0.046-0.41,0.082-0.825,0.137-1.231
			C58.8,37.807,58.2,38.051,57.719,38.532z"/>
		<path d="M57.719,40.387c-1.561,1.562-4.106,1.562-5.666,0c-1.337-1.335-3.509-1.335-4.846,0c-1.126,1.131-2.773,1.433-4.189,0.924
			c-0.085,0.347-0.153,0.684-0.263,1.049c1.3,0.712,2.942,0.57,4.042-0.529c1.561-1.562,4.105-1.562,5.666,0
			c1.337,1.332,3.509,1.332,4.845,0c0.521-0.524,1.157-0.853,1.82-1.026c0.027-0.415,0.053-0.828,0.092-1.236
			C58.672,39.718,58.147,39.96,57.719,40.387z"/>
		<path d="M52.098,0.708c0.124,0.098,0.251,0.185,0.365,0.296c0.473,0.472,1.061,0.717,1.668,0.854
			C53.472,1.381,52.792,1.007,52.098,0.708z"/>
		<path d="M52.053,5.13c-1.337-1.334-3.509-1.334-4.846,0c-1.519,1.522-3.974,1.551-5.543,0.1c-0.15,0.257-0.312,0.498-0.451,0.771
			c0.26,0.161,0.514,0.346,0.739,0.572c1.337,1.334,3.508,1.334,4.845,0c1.561-1.562,4.105-1.562,5.666,0
			c1.337,1.334,3.509,1.334,4.845,0c0.203-0.203,0.425-0.378,0.657-0.528c-0.157-0.244-0.314-0.493-0.479-0.726
			C55.917,6.671,53.54,6.62,52.053,5.13z"/>
		<path d="M46.797,54.818c1.561-1.56,4.105-1.56,5.666,0c1.118,1.116,2.79,1.243,4.1,0.498c0.49-0.603,0.91-1.273,1.259-2.006
			c-0.032,0.027-0.07,0.037-0.103,0.066c-1.561,1.564-4.106,1.564-5.666,0c-1.337-1.332-3.509-1.332-4.846,0
			c-1.322,1.325-3.353,1.515-4.891,0.594c0.348,0.62,0.763,1.188,1.236,1.692C44.683,55.941,45.916,55.699,46.797,54.818z"/>
		<path d="M46.797,51.107c1.561-1.562,4.105-1.562,5.666,0c1.337,1.334,3.509,1.334,4.845,0c0.443-0.444,0.973-0.746,1.528-0.938
			c0.087-0.424,0.158-0.854,0.213-1.291c-0.484,0.162-0.944,0.401-1.33,0.789c-1.561,1.561-4.106,1.561-5.666,0
			c-1.337-1.334-3.509-1.334-4.846,0c-1.56,1.561-4.105,1.561-5.666,0c-0.127-0.128-0.289-0.183-0.433-0.287
			c0.009,0.393,0.038,0.775,0.086,1.149c0.268,0.16,0.525,0.347,0.755,0.579C43.289,52.444,45.46,52.444,46.797,51.107z"/>
		<path d="M57.719,19.977c-1.561,1.562-4.106,1.562-5.666,0c-1.337-1.334-3.509-1.334-4.846,0c-1.56,1.562-4.105,1.562-5.666,0
			c-0.812-0.811-1.92-1.067-2.975-0.896c0.019,0.4,0.068,0.807,0.105,1.208c1.172-0.131,2.386,0.234,3.28,1.128
			c1.337,1.334,3.508,1.334,4.845,0c1.561-1.562,4.105-1.562,5.666,0c1.337,1.334,3.509,1.334,4.845,0
			c1.236-1.24,3.089-1.478,4.583-0.751c0-0.397-0.029-0.776-0.043-1.166C60.533,18.731,58.841,18.853,57.719,19.977z"/>
		<path d="M52.053,57.086c-1.337-1.332-3.509-1.332-4.846,0c-0.241,0.242-0.508,0.434-0.786,0.6
			c1.037,0.445,2.169,0.694,3.351,0.696c1.238,0.002,2.34-0.203,3.316-0.565C52.714,57.629,52.362,57.398,52.053,57.086z"/>
		<path d="M46.797,1.007c0.502-0.502,1.108-0.827,1.75-1.005C48.521,0.002,48.499,0,48.476,0c-1.515,0.091-2.956,0.813-4.247,1.979
			C45.152,2.019,46.09,1.713,46.797,1.007z"/>
		<path d="M52.463,56.676c0.406,0.401,0.89,0.643,1.4,0.803c0.625-0.311,1.193-0.693,1.702-1.139
			c-1.241,0.21-2.56-0.152-3.513-1.105c-1.337-1.335-3.509-1.335-4.846,0c-0.789,0.789-1.829,1.177-2.869,1.167
			c0.438,0.37,0.912,0.696,1.414,0.968c0.374-0.167,0.734-0.388,1.043-0.693C48.357,55.115,50.902,55.115,52.463,56.676z"/>
		<path d="M57.719,16.264c-1.561,1.563-4.106,1.563-5.666,0c-1.337-1.333-3.509-1.333-4.846,0c-1.56,1.563-4.105,1.563-5.666,0
			c-0.787-0.785-1.854-1.05-2.878-0.913c-0.035,0.411-0.078,0.817-0.097,1.235c1.205-0.166,2.464,0.196,3.386,1.119
			c1.337,1.334,3.508,1.334,4.845,0c1.561-1.562,4.105-1.562,5.666,0c1.337,1.334,3.509,1.334,4.845,0
			c1.168-1.17,2.889-1.462,4.335-0.88c-0.051-0.425-0.092-0.862-0.155-1.275C60.237,15.018,58.736,15.247,57.719,16.264z"/>
		<path d="M52.053,8.842c-1.337-1.334-3.509-1.334-4.846,0c-1.56,1.562-4.105,1.562-5.666,0c-0.364-0.365-0.798-0.607-1.252-0.773
			c-0.14,0.363-0.263,0.742-0.388,1.121c0.753,0.147,1.469,0.512,2.051,1.094c1.337,1.333,3.508,1.333,4.845,0
			c1.561-1.562,4.105-1.562,5.666,0c1.337,1.333,3.509,1.333,4.845,0c0.652-0.655,1.48-1.019,2.334-1.125
			c-0.169-0.39-0.355-0.75-0.541-1.116c-0.504,0.159-0.982,0.399-1.382,0.799C56.158,10.404,53.612,10.404,52.053,8.842z"/>
		<path d="M46.797,49.253c1.561-1.562,4.105-1.562,5.666,0c1.337,1.334,3.509,1.334,4.845,0c0.516-0.516,1.141-0.844,1.798-1.02
			c0.039-0.408,0.057-0.819,0.066-1.236c-0.531,0.157-1.033,0.396-1.453,0.814c-1.561,1.56-4.106,1.56-5.666,0
			c-1.337-1.337-3.509-1.337-4.846,0c-1.56,1.56-4.105,1.56-5.666,0c-0.098-0.101-0.224-0.137-0.328-0.219
			c-0.05,0.349-0.091,0.697-0.104,1.033c0.296,0.171,0.588,0.371,0.841,0.627C43.289,50.587,45.46,50.587,46.797,49.253z"/>
		<path d="M57.719,12.553c-1.561,1.562-4.106,1.562-5.666,0c-1.337-1.333-3.509-1.333-4.846,0c-1.56,1.562-4.105,1.562-5.666,0
			c-0.639-0.635-1.469-0.948-2.306-0.979c-0.094,0.414-0.171,0.836-0.244,1.262c1.067-0.036,2.148,0.345,2.963,1.161
			c1.337,1.333,3.509,1.333,4.845,0c1.561-1.562,4.106-1.562,5.667,0c1.336,1.333,3.508,1.333,4.845,0
			c0.979-0.979,2.343-1.343,3.608-1.096c-0.111-0.435-0.239-0.852-0.369-1.269C59.537,11.509,58.492,11.779,57.719,12.553z"/>
		<path d="M10.418,27.049c1.337,1.334,3.508,1.334,4.845,0c1.561-1.562,4.106-1.562,5.667,0c1.336,1.334,3.508,1.334,4.845,0
			c0.923-0.922,2.184-1.284,3.384-1.119c-0.016-0.418-0.061-0.827-0.096-1.235c-1.023-0.14-2.093,0.128-2.877,0.913
			c-1.56,1.563-4.106,1.563-5.666,0c-1.337-1.333-3.508-1.333-4.845,0c-1.56,1.563-4.106,1.563-5.666,0
			C8.987,24.59,7.49,24.361,6.24,24.894c-0.065,0.413-0.105,0.85-0.154,1.275C7.532,25.587,9.25,25.879,10.418,27.049z"/>
		<path d="M10.418,23.34c1.337,1.333,3.508,1.333,4.845,0c1.561-1.562,4.106-1.562,5.667,0c1.336,1.333,3.508,1.333,4.845,0
			c0.815-0.815,1.895-1.194,2.964-1.161c-0.075-0.425-0.152-0.847-0.245-1.261c-0.837,0.031-1.668,0.341-2.306,0.979
			c-1.56,1.562-4.106,1.562-5.666,0c-1.337-1.333-3.508-1.333-4.845,0c-1.56,1.562-4.106,1.562-5.666,0
			c-0.773-0.773-1.818-1.043-2.829-0.922c-0.131,0.416-0.258,0.833-0.37,1.268C8.076,21.994,9.44,22.359,10.418,23.34z"/>
		<path d="M10.418,54.885c1.337,1.335,3.508,1.335,4.845,0c1.561-1.562,4.106-1.562,5.667,0c1.336,1.335,3.508,1.335,4.845,0
			c0.067-0.066,0.147-0.116,0.221-0.18c-0.091-0.283-0.167-0.562-0.279-0.854c-0.002-0.005-0.005-0.014-0.008-0.021
			c-1.565,1.146-3.776,1.024-5.189-0.39c-1.337-1.333-3.508-1.333-4.845,0c-1.56,1.564-4.106,1.564-5.666,0
			c-0.395-0.393-0.867-0.632-1.364-0.794c-0.004,0.398-0.017,0.803-0.038,1.213C9.27,54.039,9.9,54.367,10.418,54.885z"/>
		<path d="M10.418,30.76c1.337,1.334,3.508,1.334,4.845,0c1.561-1.562,4.106-1.562,5.667,0c1.336,1.334,3.508,1.334,4.845,0
			c0.895-0.894,2.109-1.261,3.281-1.128c0.036-0.401,0.084-0.808,0.103-1.208c-1.053-0.172-2.163,0.084-2.974,0.896
			c-1.56,1.562-4.106,1.562-5.666,0c-1.337-1.334-3.508-1.334-4.845,0c-1.56,1.562-4.106,1.562-5.666,0
			c-1.124-1.124-2.815-1.243-4.13-0.477c-0.014,0.39-0.044,0.769-0.044,1.166C7.331,29.282,9.183,29.523,10.418,30.76z"/>
		<path d="M10.418,34.473c1.337,1.333,3.508,1.333,4.845,0c1.561-1.563,4.106-1.563,5.667,0c1.336,1.333,3.508,1.333,4.845,0
			c0.754-0.757,1.743-1.138,2.735-1.163c0.093-0.419,0.156-0.836,0.231-1.257c-0.923-0.036-1.853,0.272-2.556,0.974
			c-1.56,1.562-4.106,1.562-5.666,0c-1.337-1.333-3.508-1.333-4.845,0c-1.56,1.562-4.106,1.562-5.666,0
			c-1.11-1.107-2.771-1.24-4.074-0.512c0.026,0.36,0.067,0.729,0.104,1.094C7.494,33.005,9.237,33.29,10.418,34.473z"/>
		<path d="M13.596,11.203c0.606-0.137,1.195-0.382,1.667-0.854c0.114-0.114,0.243-0.201,0.364-0.296
			C14.936,10.351,14.254,10.725,13.596,11.203z"/>
		<path d="M8.664,52.022c0.64,0.183,1.25,0.504,1.754,1.008c1.337,1.335,3.508,1.335,4.845,0c1.561-1.562,4.106-1.562,5.667,0
			c1.254,1.253,3.221,1.282,4.566,0.185c-0.116-0.312-0.219-0.618-0.317-0.914c-1.507,0.775-3.401,0.547-4.66-0.714
			c-1.337-1.335-3.508-1.335-4.845,0c-1.56,1.562-4.106,1.562-5.666,0c-0.399-0.399-0.883-0.642-1.388-0.799
			C8.637,51.196,8.662,51.603,8.664,52.022z"/>
		<path d="M11.631,12.972c1.219,0.459,2.652,0.212,3.632-0.767c1.561-1.562,4.106-1.562,5.667,0c1.07,1.067,2.656,1.241,3.938,0.6
			c-0.261-0.336-0.535-0.646-0.815-0.938c-1.244,0.22-2.576-0.145-3.533-1.105c-1.337-1.333-3.508-1.333-4.845,0
			c-0.815,0.815-1.896,1.196-2.969,1.159C12.337,12.243,11.981,12.595,11.631,12.972z"/>
		<path d="M10.418,51.174c1.337,1.332,3.508,1.332,4.845,0c1.561-1.562,4.106-1.562,5.667,0c1.103,1.1,2.745,1.24,4.043,0.529
			c-0.109-0.365-0.179-0.703-0.263-1.05c-1.416,0.509-3.062,0.21-4.19-0.924c-1.337-1.334-3.508-1.334-4.845,0
			c-1.56,1.562-4.106,1.562-5.666,0c-0.43-0.431-0.954-0.668-1.502-0.823c0.038,0.41,0.062,0.826,0.089,1.241
			C9.262,50.32,9.898,50.648,10.418,51.174z"/>
		<path d="M10.418,49.319c1.337,1.334,3.508,1.334,4.845,0c1.561-1.562,4.106-1.562,5.667,0c0.985,0.98,2.418,1.229,3.642,0.764
			c-0.084-0.405-0.149-0.803-0.201-1.182c-1.331,0.347-2.811,0.019-3.849-1.024c-1.337-1.334-3.508-1.334-4.845,0
			c-1.56,1.563-4.106,1.563-5.666,0c-0.481-0.48-1.082-0.728-1.703-0.861c0.051,0.408,0.091,0.818,0.136,1.231
			C9.166,48.404,9.858,48.756,10.418,49.319z"/>
		<path d="M26.185,60.863c-1.56,1.565-4.106,1.565-5.666,0c-1.337-1.332-3.508-1.332-4.845,0c-1.56,1.565-4.106,1.565-5.666,0
			c-0.281-0.278-0.615-0.465-0.951-0.629c0.12,0.479,0.254,0.946,0.421,1.396c0.336,0.181,0.658,0.393,0.941,0.68
			c1.337,1.332,3.508,1.332,4.845,0c1.561-1.564,4.106-1.564,5.667,0c1.336,1.332,3.508,1.332,4.845,0
			c0.054-0.055,0.119-0.096,0.177-0.146c0.178-0.459,0.33-0.936,0.439-1.436C26.326,60.781,26.246,60.805,26.185,60.863z"/>
		<path d="M15.263,64.162c1.561-1.561,4.106-1.561,5.667,0c0.88,0.881,2.114,1.122,3.243,0.842c0.474-0.504,0.889-1.072,1.237-1.695
			c-1.539,0.927-3.566,0.734-4.891-0.588c-1.337-1.335-3.508-1.335-4.845,0c-1.56,1.56-4.106,1.56-5.666,0
			c-0.031-0.032-0.071-0.041-0.103-0.068c0.348,0.729,0.771,1.4,1.259,2.002C12.474,65.405,14.149,65.277,15.263,64.162z"/>
		<path d="M15.263,60.451c1.561-1.562,4.106-1.562,5.667,0c1.336,1.334,3.508,1.334,4.845,0c0.232-0.23,0.488-0.418,0.756-0.582
			c0.049-0.374,0.075-0.753,0.084-1.146c-0.143,0.101-0.304,0.157-0.432,0.283c-1.561,1.564-4.106,1.564-5.667,0
			c-1.336-1.332-3.508-1.332-4.845,0c-1.561,1.564-4.106,1.564-5.667,0c-0.385-0.383-0.846-0.625-1.33-0.789
			c0.051,0.44,0.124,0.869,0.211,1.291c0.558,0.191,1.086,0.497,1.529,0.939C11.755,61.787,13.927,61.787,15.263,60.451z"/>
		<path d="M20.519,14.474c-1.337-1.334-3.508-1.334-4.845,0c-1.487,1.489-3.863,1.541-5.432,0.189
			c-0.167,0.23-0.323,0.481-0.479,0.725c0.234,0.15,0.453,0.325,0.656,0.528c1.337,1.334,3.508,1.334,4.845,0
			c1.561-1.562,4.106-1.562,5.667,0c1.336,1.334,3.508,1.334,4.845,0c0.228-0.226,0.479-0.41,0.74-0.571
			c-0.143-0.273-0.303-0.512-0.453-0.771C24.494,16.024,22.04,15.996,20.519,14.474z"/>
		<path d="M20.93,66.019c0.309,0.306,0.668,0.527,1.042,0.693c0.506-0.271,0.976-0.598,1.415-0.967
			c-1.038,0.009-2.081-0.379-2.871-1.168c-1.336-1.334-3.508-1.334-4.845,0c-0.953,0.953-2.273,1.316-3.513,1.106
			c0.511,0.444,1.079,0.828,1.703,1.138c0.509-0.159,0.995-0.401,1.399-0.803C16.824,64.459,19.369,64.459,20.93,66.019z"/>
		<path d="M20.519,66.43c-1.337-1.332-3.508-1.332-4.845,0c-0.31,0.312-0.663,0.54-1.034,0.729c0.979,0.363,2.079,0.568,3.316,0.565
			c1.182-0.002,2.313-0.25,3.352-0.695C21.028,66.863,20.76,66.671,20.519,66.43z"/>
		<path d="M20.93,10.351c0.708,0.706,1.645,1.014,2.574,0.972c-1.297-1.166-2.735-1.89-4.251-1.979
			c-0.024,0-0.047,0.002-0.071,0.002C19.82,9.523,20.428,9.849,20.93,10.351z"/>
		<path d="M10.418,41.895c1.337,1.336,3.508,1.336,4.845,0c1.561-1.561,4.106-1.561,5.667,0c1.177,1.177,2.971,1.254,4.303,0.36
			c0.174-0.483,0.368-0.981,0.586-1.501c-1.57,1.236-3.852,1.149-5.3-0.299c-1.337-1.335-3.508-1.335-4.845,0
			c-1.56,1.562-4.106,1.562-5.666,0c-0.825-0.823-1.957-1.074-3.022-0.883c0.074,0.396,0.149,0.796,0.228,1.19
			C8.361,40.653,9.545,41.019,10.418,41.895z"/>
		<path d="M15.263,58.596c1.561-1.562,4.106-1.562,5.667,0c1.336,1.335,3.508,1.335,4.845,0c0.254-0.255,0.544-0.456,0.843-0.627
			c-0.016-0.34-0.056-0.685-0.104-1.033c-0.105,0.082-0.232,0.123-0.33,0.219c-1.561,1.561-4.106,1.561-5.667,0
			c-1.336-1.336-3.508-1.336-4.845,0c-1.561,1.561-4.106,1.561-5.667,0c-0.418-0.417-0.925-0.656-1.453-0.814
			c0.009,0.418,0.029,0.828,0.065,1.234c0.657,0.178,1.283,0.507,1.798,1.021C11.755,59.931,13.927,59.931,15.263,58.596z"/>
		<path d="M10.418,38.186c1.337,1.332,3.508,1.332,4.845,0c1.561-1.565,4.106-1.565,5.667,0c1.336,1.332,3.508,1.332,4.845,0
			c0.439-0.44,0.96-0.744,1.511-0.936c0.175-0.452,0.366-0.898,0.518-1.355c-0.591,0.146-1.158,0.386-1.619,0.845
			c-1.56,1.564-4.106,1.564-5.666,0c-1.337-1.332-3.508-1.332-4.845,0c-1.56,1.564-4.106,1.564-5.666,0
			c-0.993-0.99-2.441-1.236-3.67-0.758c0.064,0.401,0.136,0.792,0.205,1.185C7.882,36.808,9.373,37.136,10.418,38.186z"/>
		<path d="M20.519,18.185c-1.337-1.334-3.508-1.334-4.845,0c-1.56,1.562-4.106,1.562-5.666,0c-0.399-0.396-0.878-0.637-1.383-0.798
			c-0.184,0.366-0.371,0.728-0.54,1.116c0.853,0.108,1.682,0.472,2.333,1.125c1.337,1.333,3.508,1.333,4.845,0
			c1.561-1.562,4.106-1.562,5.667,0c1.336,1.333,3.508,1.333,4.845,0c0.582-0.582,1.298-0.947,2.051-1.094
			c-0.126-0.381-0.248-0.761-0.388-1.121c-0.455,0.167-0.887,0.408-1.252,0.773C24.625,19.747,22.079,19.747,20.519,18.185z"/>
		<path d="M15.263,56.739c1.561-1.562,4.106-1.562,5.667,0c1.336,1.335,3.508,1.335,4.845,0c0.192-0.193,0.399-0.36,0.618-0.504
			c-0.06-0.311-0.116-0.623-0.203-0.938c-0.002,0-0.002,0-0.005,0c-1.56,1.564-4.106,1.564-5.666,0
			c-1.337-1.332-3.508-1.332-4.845,0c-1.56,1.564-4.106,1.564-5.666,0c-0.41-0.408-0.904-0.647-1.42-0.806
			c-0.026,0.404-0.044,0.806-0.047,1.207c0.687,0.169,1.34,0.507,1.877,1.043C11.755,58.076,13.927,58.076,15.263,56.739z"/>
		<path d="M10.418,45.607c1.337,1.332,3.508,1.332,4.845,0c1.561-1.564,4.106-1.564,5.667,0c0.911,0.908,2.195,1.15,3.354,0.819
			c0.031-0.42,0.087-0.842,0.161-1.262c-1.352,0.384-2.865,0.06-3.926-1.001c-1.337-1.335-3.508-1.335-4.845,0
			c-1.56,1.562-4.106,1.562-5.666,0c-0.642-0.642-1.484-0.961-2.329-0.983c0.082,0.429,0.156,0.857,0.234,1.284
			C8.825,44.54,9.72,44.91,10.418,45.607z"/>
	</g>
</g>
<g>
</g>
<g>
</g>
<g>
</g>
<g>
</g>
<g>
</g>
<g>
</g>
<g>
</g>
<g>
</g>
<g>
</g>
<g>
</g>
<g>
</g>
<g>
</g>
<g>
</g>
<g>
</g>
<g>
</g>
</svg>
