<?xml version="1.0" encoding="iso-8859-1"?>
<!-- Generator: Adobe Illustrator 16.0.0, SVG Export Plug-In . SVG Version: 6.00 Build 0)  -->
<!DOCTYPE svg PUBLIC "-//W3C//DTD SVG 1.1//EN" "http://www.w3.org/Graphics/SVG/1.1/DTD/svg11.dtd">
<svg version="1.1" id="Capa_1" xmlns="http://www.w3.org/2000/svg" xmlns:xlink="http://www.w3.org/1999/xlink" x="0px" y="0px"
	 width="309.719px" height="309.719px" viewBox="0 0 309.719 309.719" style="enable-background:new 0 0 309.719 309.719;"
	 xml:space="preserve">
<g>
	<path d="M81.187,42.86c-36.724,0-66.604,30.277-66.593,67.047c-0.145,2.679-3.375,66.062,23.306,110.418
		c15.715,26.104,36.197,30.006,47.008,30.006c20.521,0,39.376-13.479,43.854-31.346c6.642-26.504-5.055-40.79-12.793-50.245
		c-4.277-5.231-6.685-8.332-6.371-11.259c0.356-3.293,3.953-9.722,19.05-21.65c7.609-6.009,16.783-18.592,18.971-29.236
		c3.923-19.137,1.469-34.288-7.291-45.03C126.812,44.982,101.621,42.86,81.187,42.86z M131.746,103.331
		c-1.31,6.412-8.018,15.733-13.136,19.778c-16.54,13.07-24.052,22.821-25.117,32.616c-1.062,9.825,4.786,16.97,9.943,23.266
		c7.338,8.976,14.283,17.45,9.61,36.05c-2.684,10.705-15.042,19.09-28.139,19.09c-12.759,0-24.527-7.868-33.128-22.159
		c-24.073-40.025-21.044-100.56-20.996-101.611c0-28.284,22.615-51.3,50.403-51.3c16.854,0,37.384,1.447,46.591,12.732
		C133.312,78.577,134.646,89.192,131.746,103.331z"/>
	<circle cx="124.969" cy="18.225" r="18.225"/>
	<circle cx="84.066" cy="17.539" r="14.85"/>
	<circle cx="53.949" cy="26.578" r="11.475"/>
	<circle cx="30.021" cy="40.889" r="9.185"/>
	<circle cx="16.824" cy="59.67" r="6.907"/>
	<path d="M181.062,195.223c15.104,11.928,18.689,18.352,19.048,21.646c0.316,2.928-2.088,6.028-6.37,11.26
		c-7.741,9.455-19.438,23.74-12.793,50.245c4.482,17.866,23.34,31.345,43.858,31.345c10.811,0,31.293-3.892,47.003-30.011
		c26.684-44.345,23.461-107.731,23.318-109.956c0-37.226-29.879-67.503-66.604-67.503c-20.439,0-45.625,2.128-59.146,18.694
		c-8.762,10.742-11.209,25.887-7.288,45.032C164.283,176.628,173.459,189.211,181.062,195.223z M181.938,131.193
		c9.202-11.285,29.731-12.733,46.596-12.733c27.786,0,50.403,23.016,50.414,51.756c0.032,0.601,3.122,61.034-21.015,101.149
		c-8.601,14.297-20.36,22.164-33.128,22.164c-13.104,0-25.465-8.385-28.144-19.1c-4.662-18.595,2.272-27.063,9.607-36.039
		c5.168-6.307,11.012-13.447,9.946-23.271c-1.061-9.793-8.575-19.549-25.112-32.611c-5.115-4.045-11.823-13.368-13.142-19.78
		C175.067,148.587,176.401,137.977,181.938,131.193z"/>
	<circle cx="184.749" cy="77.625" r="18.225"/>
	<path d="M225.655,62.089c8.2,0,14.85,6.647,14.85,14.85c0,8.2-6.649,14.85-14.85,14.85c-8.206,0-14.851-6.65-14.851-14.85
		C210.805,68.737,217.449,62.089,225.655,62.089z"/>
	<circle cx="255.767" cy="85.978" r="11.475"/>
	<circle cx="279.697" cy="100.289" r="9.185"/>
	<path d="M292.892,112.164c3.817,0,6.908,3.093,6.908,6.908c0,3.812-3.091,6.905-6.908,6.905c-3.812,0-6.908-3.093-6.908-6.905
		C285.983,115.256,289.079,112.164,292.892,112.164z"/>
</g>
<g>
</g>
<g>
</g>
<g>
</g>
<g>
</g>
<g>
</g>
<g>
</g>
<g>
</g>
<g>
</g>
<g>
</g>
<g>
</g>
<g>
</g>
<g>
</g>
<g>
</g>
<g>
</g>
<g>
</g>
</svg>
