<?xml version="1.0" encoding="iso-8859-1"?>
<!-- Generator: Adobe Illustrator 16.0.0, SVG Export Plug-In . SVG Version: 6.00 Build 0)  -->
<!DOCTYPE svg PUBLIC "-//W3C//DTD SVG 1.1//EN" "http://www.w3.org/Graphics/SVG/1.1/DTD/svg11.dtd">
<svg version="1.1" id="Capa_1" xmlns="http://www.w3.org/2000/svg" xmlns:xlink="http://www.w3.org/1999/xlink" x="0px" y="0px"
	 width="311.588px" height="311.588px" viewBox="0 0 311.588 311.588" style="enable-background:new 0 0 311.588 311.588;"
	 xml:space="preserve">
<g>
	<g>
		<path d="M181.731,0c15.202,0,27.526,12.323,27.526,27.526c0,15.2-12.324,27.524-27.526,27.524
			c-15.198,0-27.524-12.324-27.524-27.524C154.207,12.323,166.533,0,181.731,0z"/>
		<path d="M275.502,153.914c1.579,0.577,3.185,0.852,4.769,0.852c5.618,0,10.89-3.456,12.95-9.028
			c8.782-23.84-5.25-58.386-6.876-62.246l-1.942-4.59l-48.818-25.287c-2.89-1.497-6.054-1.815-9.016-1.225
			c-22.126-1.9-51.222,14.374-58.787,18.892c-1.196,0.714-1.869,1.139-1.869,1.139v0.031c-1.274,0.859-2.465,1.856-3.412,3.182
			l-26.502,37.037l-35.302,17.373c-6.835,3.366-9.652,11.633-6.289,18.468c2.403,4.878,7.296,7.71,12.386,7.71
			c2.048,0,4.119-0.455,6.082-1.421l41.523-20.436l13.729-19.18l2.284,44.1c0,0,0.149,0.057,0.408,0.16
			c0.062,0.777,0.156,1.559,0.363,2.341l4.442,17.124l-26.535,30.059l-66.238,80.033c-4.857,5.872-4.034,14.571,1.835,19.429
			c2.571,2.128,5.688,3.158,8.785,3.158c3.966,0,7.907-1.698,10.639-4.997l65.818-79.541l14.064-15.938l1.388,5.386l7.694,2.112
			c21.35,5.872,47.101,14.344,54.251,18.419c2.512,3.552,6.654,5.836,11.258,5.836c0.315,0,0.637-0.011,0.958-0.031
			c7.606-0.523,13.344-7.109,12.82-14.717c-0.787-11.516-11.309-16.984-40.55-26.615c-8.9-2.936-17.688-5.566-23.7-7.307
			l-2.086-8.036l9.206-10.434c8.891-5.593,24.984-52.962,28.045-87.073l19.351,10.028c3.713,10.545,8.104,28.283,4.701,37.507
			C264.689,143.346,268.355,151.278,275.502,153.914z"/>
		<path d="M44.475,246.033c16.003,0,28.977,12.976,28.977,28.977c0,16-12.974,28.977-28.977,28.977S15.498,291.01,15.498,275.01
			C15.498,259.009,28.472,246.033,44.475,246.033z"/>
	</g>
</g>
<g>
</g>
<g>
</g>
<g>
</g>
<g>
</g>
<g>
</g>
<g>
</g>
<g>
</g>
<g>
</g>
<g>
</g>
<g>
</g>
<g>
</g>
<g>
</g>
<g>
</g>
<g>
</g>
<g>
</g>
</svg>
