<?xml version="1.0" encoding="iso-8859-1"?>
<!-- Generator: Adobe Illustrator 16.0.0, SVG Export Plug-In . SVG Version: 6.00 Build 0)  -->
<!DOCTYPE svg PUBLIC "-//W3C//DTD SVG 1.1//EN" "http://www.w3.org/Graphics/SVG/1.1/DTD/svg11.dtd">
<svg version="1.1" id="Capa_1" xmlns="http://www.w3.org/2000/svg" xmlns:xlink="http://www.w3.org/1999/xlink" x="0px" y="0px"
	 width="512.006px" height="512.006px" viewBox="0 0 512.006 512.006" style="enable-background:new 0 0 512.006 512.006;"
	 xml:space="preserve">
<g>
	<g>
		<path d="M106.053,114.779c31.747,0,57.604-25.627,57.604-57.433C163.658,25.762,137.8,0,106.053,0
			c-31.566,0-57.26,25.762-57.26,57.346C48.793,89.151,74.487,114.779,106.053,114.779z"/>
		<path d="M492.637,492.775h-25.428c0.221-0.23,0.479-0.402,0.68-0.641c10.395-11.963,9.133-30.074-2.82-40.469L346.072,348.189
			l-14.047-44.561v-88.797c0-15.845-9.812-36.979-21.918-47.201c0,0-88.884-88.979-91.59-91.513
			c-9.629-9.046-24.767-8.549-33.794,1.071l-76.5,81.511c-4.37,4.657-6.694,10.863-6.455,17.251l4.274,115.171
			c0.335,9.16,5.824,16.84,13.541,20.559L58.948,437.332c-1.597-0.354-3.251-0.604-4.982-0.604H39.623
			c-10.557,0-23.046,7.01-27.894,15.664c-4.848,8.645-0.201,15.664,10.356,15.664h31.881c10.557,0,19.125-7.01,19.125-15.664
			c0-0.096-0.029-0.191-0.039-0.277l65.36-135.453c6.244-0.01,12.489-2.447,17.165-7.287l64.184-66.354
			c0.507-0.516,0.889-1.119,1.339-1.673l25.005,23.849l-81.291,73.756c-5.929,5.373-9.342,12.986-9.409,20.988
			c-0.067,8.004,3.213,15.684,9.037,21.162l118.861,111.691h-7.018c-0.344,0-0.689,0.018-1.033,0.057
			c-0.412,0.047-9.391,0.938-12.729-7.889c-1.846-4.943-7.353-7.439-12.316-5.576c-4.943,1.855-7.439,7.373-5.575,12.316
			c6.111,16.209,20.922,20.303,29.903,20.303c0.783,0,1.52-0.029,2.199-0.086h72.465c5.287,0,9.562-4.275,9.562-9.562
			c0-5.289-4.275-9.562-9.562-9.562h-14c6.32-11.236,4.533-25.715-5.289-34.934l-103.542-97.307l49.333-44.762l18.082,57.365
			c1.588,5.039,4.553,9.543,8.541,13.014l122.59,106.604h-5.191c-0.344,0-0.689,0.02-1.033,0.057
			c-0.402,0.049-9.391,0.938-12.729-7.889c-1.854-4.943-7.371-7.439-12.316-5.574c-4.943,1.854-7.439,7.371-5.574,12.316
			c6.111,16.207,20.922,20.301,29.902,20.301c0.783,0,1.52-0.029,2.199-0.086h72.465c5.287,0,9.562-4.275,9.562-9.562
			C502.199,497.049,497.924,492.775,492.637,492.775z M178.671,216.706l-26.527,27.425l-2.218-59.995l28.754-30.638v63.208H178.671z
			"/>
		<path d="M63.509,488.309h-44.14c-5.288,0-9.562,4.275-9.562,9.562c0,5.289,4.274,9.562,9.562,9.562h44.14
			c5.288,0,9.562-4.273,9.562-9.562C73.072,492.584,68.797,488.309,63.509,488.309z"/>
	</g>
</g>
<g>
</g>
<g>
</g>
<g>
</g>
<g>
</g>
<g>
</g>
<g>
</g>
<g>
</g>
<g>
</g>
<g>
</g>
<g>
</g>
<g>
</g>
<g>
</g>
<g>
</g>
<g>
</g>
<g>
</g>
</svg>
