<?xml version="1.0" encoding="iso-8859-1"?>
<!-- Generator: Adobe Illustrator 19.0.0, SVG Export Plug-In . SVG Version: 6.00 Build 0)  -->
<svg version="1.1" id="Layer_1" xmlns="http://www.w3.org/2000/svg" xmlns:xlink="http://www.w3.org/1999/xlink" x="0px" y="0px"
	 viewBox="0 0 454.5 454.5" style="enable-background:new 0 0 454.5 454.5;" xml:space="preserve">
<g>
	<g>
		<path d="M0,75.75v303h454.5v-303H0z M234.1,90.75h205.3v36H234.1V90.75z M397.9,141.75v171.1h-25.3v-171.1H397.9z M357.7,141.75
			v171.1H234.1v-171.1H357.7z M15,90.75h204.1v36H15V90.75z M80.6,141.75v171.1H55.3v-171.1H80.6z M15,141.65h25.3v171.1H15V141.65z
			 M219.1,363.75H15v-36h204.1V363.75z M219.1,312.85H95.5v-171.1h123.6V312.85z M439.4,363.75H234.1v-36h205.3V363.75z
			 M439.4,312.85h-26.5v-171.1h26.5V312.85z"/>
	</g>
</g>
<g>
</g>
<g>
</g>
<g>
</g>
<g>
</g>
<g>
</g>
<g>
</g>
<g>
</g>
<g>
</g>
<g>
</g>
<g>
</g>
<g>
</g>
<g>
</g>
<g>
</g>
<g>
</g>
<g>
</g>
</svg>
