<?xml version="1.0" encoding="iso-8859-1"?>
<!-- Generator: Adobe Illustrator 18.1.1, SVG Export Plug-In . SVG Version: 6.00 Build 0)  -->
<svg version="1.1" id="Capa_1" xmlns="http://www.w3.org/2000/svg" xmlns:xlink="http://www.w3.org/1999/xlink" x="0px" y="0px"
	 viewBox="0 0 166.152 166.152" style="enable-background:new 0 0 166.152 166.152;" xml:space="preserve">
<g>
	<path style="fill:#010002;" d="M165.64,114.103l-10.693-60.576c-2.852-16.158-17.441-23.897-32.424-17.197l-12.214,5.46
		c-14.989,6.701-39.489,6.701-54.472,0l-12.214-5.46C28.64,29.63,14.051,37.369,11.199,53.527L0.513,114.103
		c-2.852,16.158,6.492,22.752,20.771,14.673l0.734-0.412c14.279-8.085,39.381-14.708,55.79-14.708h10.526
		c16.409,0,41.517,6.617,55.796,14.708l0.734,0.412C159.148,136.872,168.492,130.261,165.64,114.103z M53.325,89.084h-6.003v6.009
		c0,4.398-2.703,8.008-6.009,8.008c-3.306,0-6.003-3.604-6.003-8.008v-6.009h-6.003c-4.404,0-8.008-2.709-8.008-6.009
		s3.604-6.009,8.008-6.009h6.003v-6.009c0-4.398,2.703-8.008,6.003-8.008c3.3,0,6.009,3.604,6.009,8.008v6.009h6.003
		c4.404,0,8.008,2.709,8.008,6.009S57.717,89.084,53.325,89.084z M110.87,89.114c-3.341,0-6.044-2.703-6.044-6.044
		s2.703-6.056,6.044-6.056s6.044,2.715,6.044,6.056S114.205,89.114,110.87,89.114z M124.844,103.088
		c-3.341,0-6.044-2.703-6.044-6.044c0-3.341,2.703-6.044,6.044-6.044c3.347,0,6.05,2.703,6.05,6.044
		C130.895,100.385,128.186,103.088,124.844,103.088z M124.844,75.145c-3.341,0-6.044-2.703-6.044-6.044
		c0-3.347,2.703-6.05,6.044-6.05c3.347,0,6.05,2.703,6.05,6.05C130.895,72.442,128.186,75.145,124.844,75.145z M138.813,89.114
		c-3.341,0-6.044-2.703-6.044-6.044s2.703-6.056,6.044-6.056c3.347,0,6.05,2.715,6.05,6.056S142.154,89.114,138.813,89.114z"/>
</g>
<g>
</g>
<g>
</g>
<g>
</g>
<g>
</g>
<g>
</g>
<g>
</g>
<g>
</g>
<g>
</g>
<g>
</g>
<g>
</g>
<g>
</g>
<g>
</g>
<g>
</g>
<g>
</g>
<g>
</g>
</svg>
