<?xml version="1.0" encoding="iso-8859-1"?>
<!-- Generator: Adobe Illustrator 16.0.0, SVG Export Plug-In . SVG Version: 6.00 Build 0)  -->
<!DOCTYPE svg PUBLIC "-//W3C//DTD SVG 1.1//EN" "http://www.w3.org/Graphics/SVG/1.1/DTD/svg11.dtd">
<svg version="1.1" id="Capa_1" xmlns="http://www.w3.org/2000/svg" xmlns:xlink="http://www.w3.org/1999/xlink" x="0px" y="0px"
	 width="612px" height="612px" viewBox="0 0 612 612" style="enable-background:new 0 0 612 612;" xml:space="preserve">
<g>
	<path d="M275.4,295.8c81.682,0,147.899-66.217,147.899-147.9C423.299,66.218,357.082,0,275.4,0c-81.683,0-147.9,66.217-147.9,147.9
		C127.5,229.583,193.717,295.8,275.4,295.8z M345.461,206.604c-6.729,22.246-35.549,38.968-70.09,38.968
		c-34.542,0-63.363-16.723-70.091-38.968H345.461z M586.5,510v20.4c0,5.634-4.566,10.2-10.199,10.2H515.1V601.8
		c0,5.634-4.566,10.2-10.199,10.2h-20.4c-5.633,0-10.199-4.566-10.199-10.2v-61.199H413.1c-5.633,0-10.199-4.566-10.199-10.2V510
		c0-5.633,4.566-10.199,10.199-10.199h61.201v-61.2c0-5.634,4.566-10.2,10.199-10.2h20.4c5.633,0,10.199,4.566,10.199,10.2v61.2
		h61.201C581.934,499.8,586.5,504.367,586.5,510z M382.5,510v20.4c0,5.419,1.535,10.438,4.016,14.857
		c-30.803,3.35-67.52,5.542-111.116,5.542c-142.607,0-212.393-23.302-237.979-34.686c-6.602-2.938-11.921-11.336-11.921-18.562
		V448.8c0-73.056,55.624-133.663,126.599-141.78c2.157-0.247,5.355,0.677,7.113,1.949C191.938,332.66,232.002,346.8,275.4,346.8
		s83.463-14.14,116.188-37.831c1.758-1.272,4.957-2.196,7.113-1.949c58.746,6.719,106.869,49.438,121.744,105.37
		c-4.572-2.724-9.848-4.389-15.545-4.389h-20.4c-16.873,0-30.6,13.726-30.6,30.6v40.8H413.1C396.227,479.4,382.5,493.126,382.5,510z
		"/>
</g>
<g>
</g>
<g>
</g>
<g>
</g>
<g>
</g>
<g>
</g>
<g>
</g>
<g>
</g>
<g>
</g>
<g>
</g>
<g>
</g>
<g>
</g>
<g>
</g>
<g>
</g>
<g>
</g>
<g>
</g>
</svg>
